<svg width="57" height="57" viewBox="0 0 57 57" fill="none" xmlns="http://www.w3.org/2000/svg">
<circle cx="28.5" cy="28.5" r="28.5" fill="#9FA3DB"/>
<path d="M29 12.275C31.61 12.275 33.725 14.39 33.725 17C33.725 19.61 31.61 21.725 29 21.725C26.39 21.725 24.275 19.61 24.275 17C24.275 14.39 26.39 12.275 29 12.275ZM29 32.525C35.6825 32.525 42.725 35.81 42.725 37.25V39.725H15.275V37.25C15.275 35.81 22.3175 32.525 29 32.525ZM29 8C24.0275 8 20 12.0275 20 17C20 21.9725 24.0275 26 29 26C33.9725 26 38 21.9725 38 17C38 12.0275 33.9725 8 29 8ZM29 28.25C22.9925 28.25 11 31.265 11 37.25V41.75C11 42.9875 12.0125 44 13.25 44H44.75C45.9875 44 47 42.9875 47 41.75V37.25C47 31.265 35.0075 28.25 29 28.25Z" fill="white" fill-opacity="0.77"/>
</svg>
