<svg width="414" height="896" viewBox="0 0 414 896" fill="none" xmlns="http://www.w3.org/2000/svg">
<g filter="url(#filter0_f)">
<path d="M346.771 69.046C364.109 81.1052 377.91 96.8749 378.937 113.16C379.963 129.548 368.215 146.452 361.485 164.695C354.756 183.041 353.159 202.728 341.639 216.127C330.118 229.526 308.903 236.741 290.653 233.03C272.289 229.423 257.005 214.993 245.598 201.491C234.306 187.989 227.12 175.517 219.82 161.603C212.52 147.688 205.22 132.228 207.388 117.489C209.441 102.647 220.961 88.6293 235.903 75.8486C250.845 63.068 269.323 51.6272 288.942 50.1842C308.561 48.6382 329.434 56.9869 346.771 69.046Z" fill="#7BCAD0"/>
</g>
<g filter="url(#filter1_f)">
<path d="M371.523 699.179C380.038 716.589 369.565 752.709 367.866 779.694C366.037 806.909 372.784 824.812 371.74 853.779C370.696 882.745 361.795 922.368 343.854 929.849C326.077 937.304 299.357 912.184 271.589 887.859C243.691 863.764 214.712 840.26 202.429 805.719C190.147 771.178 194.561 725.6 215.021 703.522C235.351 681.675 271.693 683.124 303.616 683.198C335.538 683.273 363.008 681.769 371.523 699.179Z" fill="#4D90A2"/>
</g>
<g filter="url(#filter2_f)">
<path d="M150.477 343.566C145.496 351.051 142.592 359.584 142.032 368.379C141.11 379.114 143.762 386.795 149.044 402.12C152.143 411.211 155.97 420.065 160.492 428.605C167.977 442.58 173.789 448.997 182.496 461.032C191.203 473.066 201.842 487.849 209.809 505.441C217.964 524.05 222.792 543.813 224.1 563.935C225.679 581.667 224.721 597.313 223.666 614.754C222.511 633.059 220.749 645.419 224.512 663.575C225.868 670.747 228.024 677.762 230.942 684.502C235.107 694.018 242.019 709.81 259.272 721.139C270.136 728.178 282.864 732.267 296.067 732.962C316.846 734.035 332.169 726.005 348.701 717.08C365.234 708.156 376.326 698.358 397.609 679.476C413.12 666.137 427.779 651.949 441.51 636.985C456.372 620.56 473.654 601.448 489.225 573.102C506.319 541.981 518.57 519.645 511.025 495.596C506.131 480.085 493.827 466.684 486.053 458.153C469.568 440.127 460.719 439.39 455.163 425.477C452.632 419.153 454.488 419.368 452.742 387.011C451.429 362.903 450.101 357.271 448.435 352.494C444.668 342.712 439.173 333.605 432.181 325.555C399.007 287.645 305.081 295.865 271.595 298.765C243.132 301.196 226.467 305.908 204.47 312.114C195.858 314.452 187.524 317.627 179.602 321.585C168.361 327.227 158.032 332.399 150.477 343.566Z" fill="#E0C5E4"/>
</g>
<g filter="url(#filter3_f)">
<path d="M-92.3146 113.415C-80.1279 102.01 -67.0894 98.3772 -48.6346 93.1561C-25.4405 86.6839 -24.1956 91.3757 -11.5066 84.9998C4.98262 76.699 6.27118 67.6042 25.6214 53.7215C36.3799 46.1051 48.0342 40.147 60.2596 36.0132C81.9881 29.086 104.926 28.1278 127.068 33.2222C142.553 36.6868 170.18 43.1109 187.674 67.2673C194.335 76.4824 202.962 88.4644 202.285 103.093C202.067 107.592 200.975 111.851 202.285 118.588C203.862 126.049 207.384 132.84 212.419 138.125C220.478 146.642 225.523 143.586 235.919 150.395C238.627 152.176 256.776 164.519 259.419 185.812C260.926 197.842 256.798 207.611 254.461 213.072C253.238 215.959 250.093 222.576 230.961 243.051C216.569 258.402 214.144 259.099 208.706 267.569C203.77 275.002 200.004 283.299 197.568 292.11C195.034 301.59 196.148 304.405 193.855 323.388C192.042 338.618 191.278 337.127 190.142 347.93C187.827 369.969 191.3 372.904 188.919 388.832C187.558 400.535 183.745 411.73 177.781 421.53C169.285 434.835 158.452 441.019 149.389 446.047C136.459 453.265 124.928 455.455 102.367 459.689C77.6006 464.309 64.8897 466.571 49.1868 463.78C37.3058 461.638 27.3468 459.858 18.2613 451.509C4.37108 438.805 9.30695 426.582 -3.99362 414.721C-13.6469 406.107 -25.0911 404.64 -42.3447 402.45C-57.0648 400.573 -60.996 402.883 -76.022 399.731C-84.4896 398.345 -92.7248 395.589 -100.461 391.551C-116.754 382.288 -124.485 366.336 -131.386 352.044C-142.896 327.839 -145.823 307.003 -148.705 285.277C-153.51 249.042 -156.175 228.784 -146.238 208.958C-142.197 200.922 -138.834 198.444 -130.141 181.722C-122.279 166.54 -121.951 162.233 -115.312 149C-107.057 132.591 -101.968 122.413 -92.3146 113.415Z" fill="#7887CD" fill-opacity="0.8"/>
</g>
<g filter="url(#filter4_f)">
<rect x="-16" y="-24" width="447" height="931" fill="#BFD4EF" fill-opacity="0.6"/>
</g>
<defs>
<filter id="filter0_f" x="193" y="36" width="200" height="212" filterUnits="userSpaceOnUse" color-interpolation-filters="sRGB">
<feFlood flood-opacity="0" result="BackgroundImageFix"/>
<feBlend mode="normal" in="SourceGraphic" in2="BackgroundImageFix" result="shape"/>
<feGaussianBlur stdDeviation="7" result="effect1_foregroundBlur"/>
</filter>
<filter id="filter1_f" x="168" y="652" width="255.282" height="312.674" filterUnits="userSpaceOnUse" color-interpolation-filters="sRGB">
<feFlood flood-opacity="0" result="BackgroundImageFix"/>
<feBlend mode="normal" in="SourceGraphic" in2="BackgroundImageFix" result="shape"/>
<feGaussianBlur stdDeviation="7.5" result="effect1_foregroundBlur"/>
</filter>
<filter id="filter2_f" x="123.698" y="272.448" width="414.302" height="482.097" filterUnits="userSpaceOnUse" color-interpolation-filters="sRGB">
<feFlood flood-opacity="0" result="BackgroundImageFix"/>
<feBlend mode="normal" in="SourceGraphic" in2="BackgroundImageFix" result="shape"/>
<feGaussianBlur stdDeviation="7.5" result="effect1_foregroundBlur"/>
</filter>
<filter id="filter3_f" x="-160" y="23" width="426.741" height="449" filterUnits="userSpaceOnUse" color-interpolation-filters="sRGB">
<feFlood flood-opacity="0" result="BackgroundImageFix"/>
<feBlend mode="normal" in="SourceGraphic" in2="BackgroundImageFix" result="shape"/>
<feGaussianBlur stdDeviation="3.5" result="effect1_foregroundBlur"/>
</filter>
<filter id="filter4_f" x="-23" y="-31" width="461" height="945" filterUnits="userSpaceOnUse" color-interpolation-filters="sRGB">
<feFlood flood-opacity="0" result="BackgroundImageFix"/>
<feBlend mode="normal" in="SourceGraphic" in2="BackgroundImageFix" result="shape"/>
<feGaussianBlur stdDeviation="3.5" result="effect1_foregroundBlur"/>
</filter>
</defs>
</svg>
