<svg width="33" height="36" viewBox="0 0 33 36" fill="none" xmlns="http://www.w3.org/2000/svg">
<path d="M8.25 3.27273H3.3V8.18182H0V0H8.25V3.27273ZM33 8.18182V0H24.75V3.27273H29.7V8.18182H33ZM8.25 32.7273H3.3V27.8182H0V36H8.25V32.7273ZM29.7 27.8182V32.7273H24.75V36H33V27.8182H29.7ZM24.75 8.18182H8.25V27.8182H24.75V8.18182ZM28.05 27.8182C28.05 29.6182 26.565 31.0909 24.75 31.0909H8.25C6.435 31.0909 4.95 29.6182 4.95 27.8182V8.18182C4.95 6.38182 6.435 4.90909 8.25 4.90909H24.75C26.565 4.90909 28.05 6.38182 28.05 8.18182V27.8182ZM21.45 11.4545H11.55V14.7273H21.45V11.4545ZM21.45 16.3636H11.55V19.6364H21.45V16.3636ZM21.45 21.2727H11.55V24.5455H21.45V21.2727Z" fill="#B4A0C6"/>
</svg>
