<svg width="36" height="33" viewBox="0 0 36 33" fill="none" xmlns="http://www.w3.org/2000/svg">
<path d="M32.8696 7.85714H27.9078L25.0435 4.71429H15.6522V7.85714H23.6661L26.5304 11H32.8696V29.8571H7.82609V15.7143H4.69565V29.8571C4.69565 31.5857 6.10435 33 7.82609 33H32.8696C34.5913 33 36 31.5857 36 29.8571V11C36 9.27143 34.5913 7.85714 32.8696 7.85714ZM12.5217 20.4286C12.5217 24.7657 16.0278 28.2857 20.3478 28.2857C24.6678 28.2857 28.1739 24.7657 28.1739 20.4286C28.1739 16.0914 24.6678 12.5714 20.3478 12.5714C16.0278 12.5714 12.5217 16.0914 12.5217 20.4286ZM20.3478 15.7143C22.9304 15.7143 25.0435 17.8357 25.0435 20.4286C25.0435 23.0214 22.9304 25.1429 20.3478 25.1429C17.7652 25.1429 15.6522 23.0214 15.6522 20.4286C15.6522 17.8357 17.7652 15.7143 20.3478 15.7143ZM7.82609 7.85714H12.5217V4.71429H7.82609V0H4.69565V4.71429H0V7.85714H4.69565V12.5714H7.82609V7.85714Z" fill="#475BA3"/>
</svg>
