<svg width="38" height="38" viewBox="0 0 38 38" fill="none" xmlns="http://www.w3.org/2000/svg">
<path d="M19 0C8.512 0 0 8.512 0 19C0 29.488 8.512 38 19 38C29.488 38 38 29.488 38 19C38 8.512 29.488 0 19 0ZM19 34.2C10.621 34.2 3.8 27.379 3.8 19C3.8 10.621 10.621 3.8 19 3.8C27.379 3.8 34.2 10.621 34.2 19C34.2 27.379 27.379 34.2 19 34.2ZM17.1 26.6H20.9V30.4H17.1V26.6ZM20.159 7.676C16.245 7.106 12.787 9.519 11.742 12.977C11.4 14.079 12.236 15.2 13.395 15.2H13.775C14.554 15.2 15.181 14.649 15.447 13.927C16.055 12.236 17.86 11.077 19.817 11.495C21.622 11.875 22.952 13.642 22.8 15.485C22.61 18.031 19.722 18.582 18.145 20.957C18.145 20.976 18.126 20.976 18.126 20.995C18.107 21.033 18.088 21.052 18.069 21.09C17.898 21.375 17.727 21.698 17.594 22.04C17.575 22.097 17.537 22.135 17.518 22.192C17.499 22.23 17.499 22.268 17.48 22.325C17.252 22.971 17.1 23.75 17.1 24.7H20.9C20.9 23.902 21.109 23.237 21.432 22.667C21.47 22.61 21.489 22.553 21.527 22.496C21.679 22.23 21.869 21.983 22.059 21.755C22.078 21.736 22.097 21.698 22.116 21.679C22.306 21.451 22.515 21.242 22.743 21.033C24.567 19.304 27.037 17.898 26.524 14.269C26.068 10.963 23.465 8.17 20.159 7.676V7.676Z" fill="#F4EBF6"/>
</svg>
