<svg width="50" height="50" viewBox="0 0 50 50" fill="none" xmlns="http://www.w3.org/2000/svg">
<circle cx="25" cy="25" r="25" fill="#B4A0C6" fill-opacity="0.3"/>
<path d="M23.1977 32.3044C23.7786 32.8696 24.717 32.8696 25.2979 32.3044L30.6454 27.1015C31.2263 26.5362 31.2263 25.6232 30.6454 25.058L25.2979 19.8551C24.717 19.2899 23.7786 19.2899 23.1977 19.8551C22.6168 20.4203 22.6168 21.3333 23.1977 21.8986L25.998 24.6377H13.0838C12.2645 24.6377 11.5942 25.2899 11.5942 26.087C11.5942 26.8841 12.2645 27.5362 13.0838 27.5362H25.998L23.1977 30.2609C22.6168 30.8261 22.6317 31.7536 23.1977 32.3044ZM35.4268 13.0435H14.5733C12.9199 13.0435 11.5942 14.3478 11.5942 15.942V20.2899C11.5942 21.087 12.2645 21.7391 13.0838 21.7391C13.903 21.7391 14.5733 21.087 14.5733 20.2899V17.3913C14.5733 16.5942 15.2436 15.942 16.0628 15.942H33.9372C34.7565 15.942 35.4268 16.5942 35.4268 17.3913V34.7826C35.4268 35.5797 34.7565 36.2319 33.9372 36.2319H16.0628C15.2436 36.2319 14.5733 35.5797 14.5733 34.7826V31.8841C14.5733 31.087 13.903 30.4348 13.0838 30.4348C12.2645 30.4348 11.5942 31.087 11.5942 31.8841V36.2319C11.5942 37.8261 12.9348 39.1304 14.5733 39.1304H35.4268C37.0653 39.1304 38.4058 37.8261 38.4058 36.2319V15.942C38.4058 14.3478 37.0653 13.0435 35.4268 13.0435Z" fill="#B4A0C6"/>
</svg>
