<svg width="30" height="34" viewBox="0 0 30 34" fill="none" xmlns="http://www.w3.org/2000/svg">
<path d="M24.2079 13.1896L14.8738 25.791C13.08 28.2126 9.66568 28.7212 7.24403 26.9274C4.82239 25.1336 4.31385 21.7193 6.10763 19.2976L16.2534 5.60056C17.3735 4.08841 19.5099 3.77021 21.022 4.89031C22.5342 6.01041 22.8524 8.14673 21.7323 9.65889L13.2098 21.1644C12.7634 21.7671 11.905 21.895 11.3024 21.4485C10.6997 21.0021 10.5718 20.1438 11.0183 19.5411L18.7291 9.13132L17.0854 7.91383L9.37461 18.3236C8.25451 19.8358 8.5727 21.9721 10.0849 23.0922C11.597 24.2123 13.7333 23.8941 14.8534 22.3819L23.3759 10.8764C25.1697 8.45474 24.6612 5.04044 22.2395 3.24666C19.8179 1.45288 16.4036 1.96142 14.6098 4.38307L4.46398 18.0802C1.99652 21.4113 2.69541 26.1036 6.02654 28.571C9.35767 31.0385 14.0499 30.3396 16.5174 27.0085L25.8516 14.4071L24.2079 13.1896Z" fill="white" fill-opacity="0.4"/>
</svg>
