<svg width="24" height="29" viewBox="0 0 24 29" fill="none" xmlns="http://www.w3.org/2000/svg">
<path d="M22.2081 11.1896L12.874 23.791C11.0802 26.2126 7.66592 26.7212 5.24428 24.9274C2.82263 23.1336 2.31409 19.7193 4.10787 17.2976L14.2537 3.60056C15.3738 2.08841 17.5101 1.77021 19.0223 2.89031C20.5344 4.01041 20.8526 6.14673 19.7325 7.65889L11.21 19.1644C10.7636 19.7671 9.90527 19.895 9.3026 19.4485C8.69993 19.0021 8.57208 18.1438 9.0185 17.5411L16.7293 7.13132L15.0857 5.91383L7.37485 16.3236C6.25475 17.8358 6.57295 19.9721 8.08511 21.0922C9.59726 22.2123 11.7336 21.8941 12.8537 20.3819L21.3762 8.87638C23.1699 6.45474 22.6614 3.04044 20.2398 1.24666C17.8181 -0.54712 14.4038 -0.0385776 12.61 2.38307L2.46422 16.0802C-0.00323935 19.4113 0.695651 24.1036 4.02678 26.571C7.35791 29.0385 12.0502 28.3396 14.5177 25.0085L23.8518 12.4071L22.2081 11.1896Z" fill="black" fill-opacity="0.4"/>
</svg>
