<svg width="33" height="33" viewBox="0 0 33 33" fill="none" xmlns="http://www.w3.org/2000/svg">
<path d="M16.5 0C7.392 0 0 7.392 0 16.5C0 25.608 7.392 33 16.5 33C25.608 33 33 25.608 33 16.5C33 7.392 25.608 0 16.5 0ZM16.5 29.7C9.2235 29.7 3.3 23.7765 3.3 16.5C3.3 9.2235 9.2235 3.3 16.5 3.3C23.7765 3.3 29.7 9.2235 29.7 16.5C29.7 23.7765 23.7765 29.7 16.5 29.7ZM22.902 10.3785L13.2 20.0805L10.098 16.9785C9.4545 16.335 8.415 16.335 7.7715 16.9785C7.128 17.622 7.128 18.6615 7.7715 19.305L12.045 23.5785C12.6885 24.222 13.728 24.222 14.3715 23.5785L25.245 12.705C25.8885 12.0615 25.8885 11.022 25.245 10.3785C24.6015 9.735 23.5455 9.735 22.902 10.3785V10.3785Z" fill="#B4A0C6"/>
</svg>
