<svg width="33" height="33" viewBox="0 0 33 33" fill="none" xmlns="http://www.w3.org/2000/svg">
<path d="M16.5 0C7.392 0 0 7.392 0 16.5C0 25.608 7.392 33 16.5 33C25.608 33 33 25.608 33 16.5C33 7.392 25.608 0 16.5 0ZM12.0285 23.5785L6.105 17.655C5.4615 17.0115 5.4615 15.972 6.105 15.3285C6.7485 14.685 7.788 14.685 8.4315 15.3285L13.2 20.0805L24.552 8.7285C25.1955 8.085 26.235 8.085 26.8785 8.7285C27.522 9.372 27.522 10.4115 26.8785 11.055L14.355 23.5785C13.728 24.222 12.672 24.222 12.0285 23.5785Z" fill="#B4A0C6"/>
</svg>
