<svg width="69" height="69" viewBox="0 0 69 69" fill="none" xmlns="http://www.w3.org/2000/svg">
<circle cx="34.5" cy="34.5" r="34.5" fill="#B4A0C6" fill-opacity="0.3"/>
<path d="M32.0128 44.58C32.8144 45.36 34.1094 45.36 34.9111 44.58L42.2906 37.4C43.0922 36.62 43.0922 35.36 42.2906 34.58L34.9111 27.4C34.1094 26.62 32.8144 26.62 32.0128 27.4C31.2111 28.18 31.2111 29.44 32.0128 30.22L35.8772 34H18.0556C16.925 34 16 34.9 16 36C16 37.1 16.925 38 18.0556 38H35.8772L32.0128 41.76C31.2111 42.54 31.2317 43.82 32.0128 44.58ZM48.8889 18H20.1111C17.8294 18 16 19.8 16 22V28C16 29.1 16.925 30 18.0556 30C19.1861 30 20.1111 29.1 20.1111 28V24C20.1111 22.9 21.0361 22 22.1667 22H46.8333C47.9639 22 48.8889 22.9 48.8889 24V48C48.8889 49.1 47.9639 50 46.8333 50H22.1667C21.0361 50 20.1111 49.1 20.1111 48V44C20.1111 42.9 19.1861 42 18.0556 42C16.925 42 16 42.9 16 44V50C16 52.2 17.85 54 20.1111 54H48.8889C51.15 54 53 52.2 53 50V22C53 19.8 51.15 18 48.8889 18Z" fill="#B4A0C6"/>
</svg>
