<svg width="42" height="54" viewBox="0 0 42 54" fill="none" xmlns="http://www.w3.org/2000/svg">
<path d="M36.75 18H34.125V12.8571C34.125 5.76 28.245 0 21 0C13.755 0 7.875 5.76 7.875 12.8571V18H5.25C2.3625 18 0 20.3143 0 23.1429V48.8571C0 51.6857 2.3625 54 5.25 54H36.75C39.6375 54 42 51.6857 42 48.8571V23.1429C42 20.3143 39.6375 18 36.75 18ZM13.125 12.8571C13.125 8.58857 16.6425 5.14286 21 5.14286C25.3575 5.14286 28.875 8.58857 28.875 12.8571V18H13.125V12.8571ZM36.75 48.8571H5.25V23.1429H36.75V48.8571ZM21 41.1429C23.8875 41.1429 26.25 38.8286 26.25 36C26.25 33.1714 23.8875 30.8571 21 30.8571C18.1125 30.8571 15.75 33.1714 15.75 36C15.75 38.8286 18.1125 41.1429 21 41.1429Z" fill="white"/>
</svg>
