<svg width="20" height="26" viewBox="0 0 20 26" fill="none" xmlns="http://www.w3.org/2000/svg">
<path d="M10 13C8.625 13 7.5 11.83 7.5 10.4C7.5 8.97 8.625 7.8 10 7.8C11.375 7.8 12.5 8.97 12.5 10.4C12.5 11.83 11.375 13 10 13ZM17.5 10.66C17.5 5.941 14.1875 2.6 10 2.6C5.8125 2.6 2.5 5.941 2.5 10.66C2.5 13.702 4.9375 17.732 10 22.542C15.0625 17.732 17.5 13.702 17.5 10.66ZM10 0C15.25 0 20 4.186 20 10.66C20 14.976 16.6625 20.085 10 26C3.3375 20.085 0 14.976 0 10.66C0 4.186 4.75 0 10 0Z" fill="black" fill-opacity="0.4"/>
</svg>
